<?xml version="1.0" encoding="utf-8"?>
<!-- Generator: Adobe Illustrator 20.1.0, SVG Export Plug-In . SVG Version: 6.00 Build 0)  -->
<svg version="1.1" id="Capa_1" xmlns="http://www.w3.org/2000/svg" xmlns:xlink="http://www.w3.org/1999/xlink" x="0px" y="0px"
	 viewBox="0 0 800 159.2" style="enable-background:new 0 0 800 159.2;" xml:space="preserve">
<style type="text/css">
	.st0{fill:#FDCF32;}
	.st1{fill:#196DAB;}
	.st2{fill-rule:evenodd;clip-rule:evenodd;fill:#FDCF32;}
</style>
<g>
	<path class="st0" d="M796.4,0.5H219.6c-1.1,0-1.9,0.9-1.9,1.9v154.3c0,1.1,0.9,1.9,1.9,1.9h576.8c1.1,0,1.9-0.9,1.9-1.9V2.4
		C798.3,1.4,797.5,0.5,796.4,0.5z"/>
	<path class="st1" d="M206.3,0.5H1.9C0.9,0.5,0,1.4,0,2.4v154.3c0,1.1,0.9,1.9,1.9,1.9h204.3c1.1,0,1.9-0.9,1.9-1.9V2.4
		C208.2,1.4,207.3,0.5,206.3,0.5z"/>
	<g>
		<path class="st1" d="M407.6,55c-20.8,0-38,15-38.1,36.8c0,21.8,17.3,36.8,38.1,36.8c20.8,0,38-15,38-36.8
			C445.6,69.9,428.3,55,407.6,55z M407.7,113.5c-0.1,0-0.1,0-0.2,0c-0.1,0-0.1,0-0.2,0c-12.7,0-21.5-9.8-21.5-21.7
			c0-11.9,8.8-21.7,21.5-21.7c0.1,0,0.1,0,0.2,0c0.1,0,0.1,0,0.2,0c12.7,0,21.5,9.8,21.5,21.7C429.2,103.7,420.4,113.5,407.7,113.5z
			"/>
		<path class="st1" d="M353.4,100.5c-6.3,7.5-15.7,12.3-26.3,12.3c-18.9,0-34.2-15.3-34.2-34.3c0-18.9,15.3-34.2,34.2-34.2
			c10.5,0,19.8,4.7,26.1,12.1l11.9-10.4c-9.3-10.7-23.1-17.4-38.6-17.4c-28.1,0-50.9,22.4-50.9,50c0,27.6,22.8,50,50.9,50
			c15.5,0,29.4-6.8,38.8-17.6L353.4,100.5z"/>
		<g>
			<path class="st1" d="M572.2,54.9c-20.8,0-38.1,15.1-38.1,36.9c0,21.7,0,66.9,0,66.9h16.4v-36.2c6.2,4,13.7,6.2,21.7,6.2
				c20.8,0,38.1-15,38.1-36.9C610.3,69.9,593,54.9,572.2,54.9z M572.4,113.4c-0.1,0-0.1,0-0.2,0c-0.1,0-0.1,0-0.2,0
				c-12.7,0-21.5-9.8-21.5-21.7c0-11.9,8.8-21.7,21.5-21.7c0.1,0,0.1,0,0.2,0c0.1,0,0.1,0,0.2,0c12.7,0,21.5,9.8,21.5,21.7
				C593.9,103.6,585.1,113.4,572.4,113.4z"/>
			<path class="st1" d="M489.9,54.9c-20.8,0-38.1,15.1-38.1,36.9c0,21.7,0,66.9,0,66.9h16.4v-36.2c6.2,4,13.7,6.2,21.7,6.2
				c20.8,0,38.1-15,38.1-36.9C528,69.9,510.7,54.9,489.9,54.9z M490.1,113.4c-0.1,0-0.1,0-0.2,0s-0.1,0-0.2,0
				c-12.7,0-21.5-9.8-21.5-21.7c0-11.9,8.8-21.7,21.5-21.7c0.1,0,0.1,0,0.2,0s0.1,0,0.2,0c12.7,0,21.5,9.8,21.5,21.7
				C511.5,103.6,502.8,113.4,490.1,113.4z"/>
			<path class="st1" d="M649.7,54.9c-19.3,0-35.3,15-35.3,36.9c0,21.9,16,36.9,35.3,36.9c11.6,0,23.9-3.6,30.3-12.7l-9.7-9.7
				c-4.2,4.9-10.6,7.9-18.6,7.9c-12.7,0-21.1-7.5-21.1-18h54.2c0.1-1.4,0.2-2.9,0.2-4.3C685,69.9,671.3,54.9,649.7,54.9z
				 M630.9,84.4c0-6.5,8.5-15.5,19.8-15.5c7.5,0,17.4,5.7,17.4,15.5H630.9z"/>
			<path class="st1" d="M707.6,91.7V29.6h-16.4v62.1l0,0c0,21.6,16.9,36.5,37.4,36.9v-15.1C716.2,113.2,707.6,103.5,707.6,91.7z"/>
		</g>
	</g>
	<path class="st2" d="M186,79.1H81.2c0.5-1.7,0.8-3.4,0.8-5.3c0-10.1-8.2-18.3-18.3-18.3c-8.6,0-15.9,6-17.8,14
		c-1.7-0.5-3.5-0.8-5.3-0.8c-10.1,0-18.3,8.2-18.3,18.3c0,10.1,8.2,18.3,18.3,18.3c1.8,0,3.6-0.3,5.3-0.8c1.9,8,9.2,14,17.8,14
		c10.1,0,18.3-8.2,18.3-18.3c0-1.8-0.3-3.6-0.8-5.3h71.1v22h8.5v-11h8.2v11h8.5v-22h8.5V79.1z M63.6,65.7c4.5,0,8.2,3.7,8.2,8.2
		c0,4.5-3.7,8.2-8.2,8.2c-4.5,0-8.2-3.7-8.2-8.2C55.5,69.3,59.1,65.7,63.6,65.7z M32.4,87.1c0-4.5,3.7-8.2,8.2-8.2
		c4.5,0,8.2,3.7,8.2,8.2c0,4.5-3.7,8.2-8.2,8.2C36,95.3,32.4,91.6,32.4,87.1z M63.6,108.5c-4.5,0-8.2-3.7-8.2-8.2
		c0-4.5,3.7-8.2,8.2-8.2c4.5,0,8.2,3.7,8.2,8.2C71.8,104.9,68.1,108.5,63.6,108.5z"/>
	<g>
		<path class="st1" d="M748.8,121c0,4.3-3.4,7.6-7.7,7.6c-4.3,0-7.8-3.4-7.8-7.6c0-4.2,3.5-7.5,7.8-7.5
			C745.5,113.5,748.8,116.8,748.8,121z M735.2,121c0,3.4,2.5,6,5.9,6c3.3,0,5.8-2.7,5.8-6c0-3.4-2.4-6.1-5.8-6.1
			C737.7,115,735.2,117.7,735.2,121z M739.9,125h-1.8v-7.5c0.7-0.1,1.7-0.2,2.9-0.2c1.4,0,2.1,0.2,2.6,0.6c0.4,0.3,0.7,0.9,0.7,1.7
			c0,0.8-0.6,1.5-1.6,1.7v0.1c0.7,0.3,1.1,0.8,1.4,1.8c0.2,1.2,0.4,1.6,0.6,1.9h-1.9c-0.2-0.3-0.4-1-0.6-1.8
			c-0.1-0.8-0.6-1.2-1.6-1.2h-0.8V125z M739.9,120.7h0.8c1,0,1.8-0.3,1.8-1.1c0-0.7-0.5-1.2-1.6-1.2c-0.5,0-0.8,0-1,0.1V120.7z"/>
	</g>
</g>
</svg>
